<?xml version="1.0" encoding="utf-8"?>
<svg id="master-artboard" viewBox="0 0 171.79153442382812 120.5863265991211" version="1.1" xmlns="http://www.w3.org/2000/svg" x="0px" y="0px" style="enable-background:new 0 0 1400 980;" width="171.79153442382812px" height="120.5863265991211px"><defs><style id="ee-google-fonts">@import url(https://fonts.googleapis.com/css?family=Monoton:400);</style></defs><path d="M 29.612150192260742 44.3142204284668 L 28.172149658203125 44.3142204284668 L 28.172149658203125 43.474220275878906 L 29.612150192260742 43.474220275878906 C 30.025484085083008 43.474220275878906 30.375484466552734 43.31755447387695 30.662151336669922 43.00422286987305 C 30.942150115966797 42.690887451171875 31.082149505615234 42.27755355834961 31.082149505615234 41.76422119140625 L 31.082149505615234 29.124221801757812 L 31.922149658203125 29.124221801757812 L 31.922149658203125 41.76422119140625 C 31.922149658203125 42.50422286987305 31.69881820678711 43.114219665527344 31.252151489257812 43.59422302246094 C 30.805484771728516 44.074222564697266 30.258817672729492 44.3142204284668 29.612150192260742 44.3142204284668 M 29.612150192260742 46.00422286987305 L 28.172149658203125 46.00422286987305 L 28.172149658203125 45.15422058105469 L 29.612150192260742 45.15422058105469 C 30.485483169555664 45.15422058105469 31.228816986083984 44.824222564697266 31.84214973449707 44.164222717285156 C 32.455482482910156 43.497554779052734 32.762149810791016 42.69755554199219 32.762149810791016 41.76422119140625 L 32.762149810791016 29.124221801757812 L 33.612152099609375 29.124221801757812 L 33.612152099609375 41.76422119140625 C 33.612152099609375 42.93088912963867 33.22214889526367 43.93088912963867 32.4421501159668 44.76422119140625 C 31.6688175201416 45.59088897705078 30.725482940673828 46.00422286987305 29.612150192260742 46.00422286987305 M 29.612150192260742 47.69422149658203 L 28.172149658203125 47.69422149658203 L 28.172149658203125 46.84422302246094 L 29.612150192260742 46.84422302246094 C 30.958816528320312 46.84422302246094 32.102149963378906 46.34755325317383 33.042152404785156 45.35422134399414 C 33.98215103149414 44.3675537109375 34.4521484375 43.1708869934082 34.4521484375 41.76422119140625 L 34.4521484375 29.124221801757812 L 35.30215072631836 29.124221801757812 L 35.30215072631836 41.76422119140625 C 35.30215072631836 42.83088684082031 35.0488166809082 43.82088851928711 34.542152404785156 44.734222412109375 C 34.035484313964844 45.64088821411133 33.345481872558594 46.36088943481445 32.47214889526367 46.894222259521484 C 31.598817825317383 47.427555084228516 30.645483016967773 47.69422149658203 29.612150192260742 47.69422149658203 M 29.612150192260742 49.37422180175781 L 28.172149658203125 49.37422180175781 L 28.172149658203125 48.53422164916992 L 29.612150192260742 48.53422164916992 C 30.505483627319336 48.53422164916992 31.355484008789062 48.35422134399414 32.16215133666992 47.99422073364258 C 32.96215057373047 47.634220123291016 33.65548324584961 47.15088653564453 34.242149353027344 46.544219970703125 C 34.82215118408203 45.94422149658203 35.28215026855469 45.224220275878906 35.62215042114258 44.384220123291016 C 35.96881866455078 43.55088806152344 36.14215087890625 42.677555084228516 36.14215087890625 41.76422119140625 L 36.14215087890625 29.124221801757812 L 36.98215103149414 29.124221801757812 L 36.98215103149414 41.76422119140625 C 36.98215103149414 42.790889739990234 36.788818359375 43.77422332763672 36.40214920043945 44.7142219543457 C 36.01548385620117 45.65422058105469 35.492149353027344 46.4642219543457 34.832149505615234 47.144222259521484 C 34.172149658203125 47.83088684082031 33.388816833496094 48.37422180175781 32.48215103149414 48.77422332763672 C 31.568817138671875 49.17422103881836 30.612150192260742 49.37422180175781 29.612150192260742 49.37422180175781 ZM 40.03879928588867 44.3142204284668 L 38.59879684448242 44.3142204284668 L 38.59879684448242 43.474220275878906 L 40.03879928588867 43.474220275878906 C 40.45212936401367 43.474220275878906 40.80213165283203 43.31755447387695 41.08879852294922 43.00422286987305 C 41.368797302246094 42.690887451171875 41.50879669189453 42.27755355834961 41.50879669189453 41.76422119140625 L 41.50879669189453 29.124221801757812 L 42.34879684448242 29.124221801757812 L 42.34879684448242 41.76422119140625 C 42.34879684448242 42.50422286987305 42.125465393066406 43.114219665527344 41.67879867553711 43.59422302246094 C 41.23213195800781 44.074222564697266 40.685462951660156 44.3142204284668 40.03879928588867 44.3142204284668 M 40.03879928588867 46.00422286987305 L 38.59879684448242 46.00422286987305 L 38.59879684448242 45.15422058105469 L 40.03879928588867 45.15422058105469 C 40.912132263183594 45.15422058105469 41.65546417236328 44.824222564697266 42.268798828125 44.164222717285156 C 42.88212966918945 43.497554779052734 43.18879699707031 42.69755554199219 43.18879699707031 41.76422119140625 L 43.18879699707031 29.124221801757812 L 44.038795471191406 29.124221801757812 L 44.038795471191406 41.76422119140625 C 44.038795471191406 42.93088912963867 43.64879608154297 43.93088912963867 42.868797302246094 44.76422119140625 C 42.095462799072266 45.59088897705078 41.152130126953125 46.00422286987305 40.03879928588867 46.00422286987305 M 40.03879928588867 47.69422149658203 L 38.59879684448242 47.69422149658203 L 38.59879684448242 46.84422302246094 L 40.03879928588867 46.84422302246094 C 41.38546371459961 46.84422302246094 42.5287971496582 46.34755325317383 43.46879577636719 45.35422134399414 C 44.40879821777344 44.3675537109375 44.87879943847656 43.1708869934082 44.87879943847656 41.76422119140625 L 44.87879943847656 29.124221801757812 L 45.728797912597656 29.124221801757812 L 45.728797912597656 41.76422119140625 C 45.728797912597656 42.83088684082031 45.4754638671875 43.82088851928711 44.96879577636719 44.734222412109375 C 44.46213150024414 45.64088821411133 43.772132873535156 46.36088943481445 42.89879608154297 46.894222259521484 C 42.02546310424805 47.427555084228516 41.0721321105957 47.69422149658203 40.03879928588867 47.69422149658203 M 40.03879928588867 49.37422180175781 L 38.59879684448242 49.37422180175781 L 38.59879684448242 48.53422164916992 L 40.03879928588867 48.53422164916992 C 40.932132720947266 48.53422164916992 41.78213119506836 48.35422134399414 42.58879852294922 47.99422073364258 C 43.388797760009766 47.634220123291016 44.082130432128906 47.15088653564453 44.66879653930664 46.544219970703125 C 45.24879837036133 45.94422149658203 45.708797454833984 45.224220275878906 46.048797607421875 44.384220123291016 C 46.39546203613281 43.55088806152344 46.56879806518555 42.677555084228516 46.56879806518555 41.76422119140625 L 46.56879806518555 29.124221801757812 L 47.40879821777344 29.124221801757812 L 47.40879821777344 41.76422119140625 C 47.40879821777344 42.790889739990234 47.2154655456543 43.77422332763672 46.82879638671875 44.7142219543457 C 46.44213104248047 45.65422058105469 45.91879653930664 46.4642219543457 45.25879669189453 47.144222259521484 C 44.59879684448242 47.83088684082031 43.81546401977539 48.37422180175781 42.90879821777344 48.77422332763672 C 41.99546432495117 49.17422103881836 41.03879928588867 49.37422180175781 40.03879928588867 49.37422180175781 Z" transform="matrix(1.4480056762695312, 0, 0, 1.4480056762695312, 27.517736434936523, -4.226586818695068)" style="fill: rgb(255, 255, 255); white-space: pre; color: rgb(255, 255, 255);"/></svg>